<svg width="1589" height="2475" xmlns="http://www.w3.org/2000/svg" xmlns:xlink="http://www.w3.org/1999/xlink" xml:space="preserve" overflow="hidden"><defs><clipPath id="clip0"><rect x="-1923" y="-1879" width="1589" height="2475"/></clipPath></defs><g clip-path="url(#clip0)" transform="translate(1923 1879)"><path d="M-1155.85-311.244C-1200.56-246.187-1245.03-180.951-1289.83-115.965-1270.47-107.852-1252.76-95.9041-1237.83-81.1722-1232.58-89.0936-1226.31-96.2985-1219.44-102.834-1182.43-138.762-1118.61-146.421-1076.89-114.352-1048.43-128.379-1015.95-129.621-984.811-129.454-960.172-128.152-932.678-135.428-910.704-120.613-897.727-124.281-883.759-127.698-869.934-128.702-869.086-159.958-870.269-193.054-870.209-225.015-950.84-225.41-1031.47-225.816-1112.1-226.21-1128.02-223.187-1147.69-228.074-1154.68-244.192-1158.92-259.664-1155.02-276.225-1155.98-292.127-1155.94-298.496-1155.9-304.864-1155.85-311.244ZM-869.564-730.335C-905.96-677.023-942.356-623.699-978.753-570.386-942.309-570.589-905.864-570.793-869.421-570.995-869.469-624.105-869.516-677.214-869.564-730.335ZM-1362.82-777.654-1362.52-774.627-1361.31-776.372ZM-999.257-1313.3C-1001.56-1312.71-1002.97-1311.01-996.867-1309.58L-996.27-1310.45C-993.748-1313.4-996.951-1313.9-999.257-1313.3ZM-879.577-1878.96-879.577-1878.96C-862-1879.37-844.567-1876.62-827.337-1873.38-770.221-1870.53-717.024-1822.82-713.201-1764.82-720.286-1696.12-737.254-1628.95-751.282-1561.42-629.821-1561.42-508.361-1561.42-386.888-1561.42-386.888-1043.66-386.888-525.892-386.888-8.12146-403.653-8.12146-420.417-8.15723-437.181-8.16943-424.658 23.4572-413.487 55.6334-400.056 86.9017-366.109 110.332-348.712 154.11-354.614 194.589-355.367 208.127-365.273 219.967-361.652 233.803-351.209 278.191-341.877 326.353-358.557 370.478-352.392 377.324-347.481 385.234-343.609 393.585-325.961 436.216-335.042 484.379-351.376 525.934-360.23 553.128-375.274 582.95-404.417 592.425-462.513 598.363-521.11 594.289-579.421 595.077-633.74 595.83-688.06 595.269-742.392 595.292-762.633 595.269-783.52 594.779-802.865 591.003-824.971 594.17-847.781 597.169-870.065 593.01-900.201 594.982-930.527 596.308-960.794 595.544-1032.52 592.58-1104.3 594.36-1176.04 595.424-1217.05 594.552-1259.7 600.693-1299.11 586.308-1314.26 593.178-1331.15 594.659-1347.59 594.982-1503.28 595.113-1659.05 597.61-1814.69 592.055-1811.06 566.259-1807.07 540.833-1804.3 515.252-1806.53 478.285-1799.23 437.9-1772.45 410.503-1772.29 393.609-1772.3 376.714-1772.49 359.82-1778.03 348.505-1786.77 338.05-1790.11 325.409-1804.01 287.594-1786 247.771-1792.72 209.238-1796.6 200.719-1796.58 188.891-1788.01 183.06-1825.43 115.661-1823.78 27.9258-1782.2-37.2509-1795.27-44.7899-1807.66-53.4165-1820.31-61.6129-1809.75-90.1572-1799.27-118.737-1786.87-146.552-1710.03-269.94-1625.27-388.118-1543.93-508.543-1558.7-539.142-1571.13-570.84-1581.76-603.077-1632.93-590.089-1684.02-577.125-1735.16-564.018-1771.79-553.766-1813.54-544.017-1849.88-561.449-1888.88-581.725-1909.19-624.917-1916.4-666.532-1934.09-715.185-1915.47-776.479-1869.49-802.442-1788.27-830.15-1704.17-848.323-1621.41-870.821-1620.33-942.354-1609.54-1013.74-1589.27-1082.36-1646.6-1126.21-1703.71-1170.35-1761.12-1214.08-1789.69-1234.45-1816.95-1262.14-1822.41-1298.29-1828.43-1340.85-1805.75-1381.31-1777.96-1411.75-1749.48-1453.15-1692.87-1476.23-1644.51-1458.56-1582.08-1417.25-1523.72-1370.1-1463.74-1325.31-1421.53-1378.96-1371.73-1426.77-1315.73-1465.86-1329.95-1507.12-1344.15-1548.38-1358.39-1589.63-1380.12-1650.32-1403.48-1713.41-1397.83-1779.03-1365.4-1800.51-1330.26-1817.6-1293.99-1831.51-1247.01-1854.31-1183.81-1842.28-1152.69-1799.08-1118.66-1722.48-1093.24-1642.39-1064.78-1563.6-1051.41-1565.48-1037.97-1566.92-1024.51-1567.91-1009.29-1639.26-994.083-1710.61-978.872-1781.95-972.611-1831.32-930.682-1876.78-879.577-1878.96Z" fill="#FFFFFF" fill-rule="evenodd"/><path d="M-1736.19 531.004C-1736.19 524.351-1734.65 522.946-1727.25 522.946-1722.34 522.946-1715.1 520.697-1711.17 517.935-1704.08 512.971-1704.01 512.107-1704.01 428.329-1704.01 350.464-1704.48 343.308-1709.9 338.41-1713.13 335.478-1719.03 333.076-1722.99 333.076-1728.63 333.076-1729.98 331.501-1729.18 325.825L-1728.15 318.593-1651.13 317.729C-1608.77 317.255-1573.04 317.985-1571.72 319.333-1570.4 320.7-1568.85 333.399-1568.28 347.55-1567.3 371.857-1567.63 373.366-1574.19 374.287-1579.65 375.065-1581.59 373.186-1583.31 365.365-1584.5 359.908-1589.12 351.138-1593.55 345.87-1601.31 336.645-1602.59 336.294-1628.67 336.294L-1655.74 336.294-1655.74 376.527-1655.74 416.75-1638.25 416.75C-1613.8 416.75-1605.6 412.887-1601.09 399.249-1598.5 391.399-1595.36 387.793-1591.13 387.793-1585.39 387.793-1584.94 390.431-1584.94 424.447-1584.94 454.515-1585.83 461.463-1589.9 463.019-1593.49 464.395-1596.56 460.978-1600.98 450.671-1607.7 434.982-1616.2 431.357-1641.4 433.416L-1654.13 434.451-1655.03 473.393C-1655.8 506.707-1655.14 512.999-1650.51 516.843-1643.9 522.329-1599.37 522.775-1589.77 517.451-1586.23 515.495-1578.26 505.862-1572.07 496.048-1562.05 480.179-1554.03 474.475-1548.91 479.6-1547.07 481.432-1552.81 508.425-1559.06 527.369L-1562.91 539.043-1649.55 539.043-1736.19 539.043ZM-1532.23 534.373C-1535 527.132-1530.75 522.946-1520.62 522.946-1501.63 522.946-1501.27 521.162-1501.27 428.282-1501.27 350.445-1501.74 343.308-1507.15 338.41-1510.39 335.478-1516.28 333.076-1520.25 333.076-1525.89 333.076-1527.24 331.501-1526.43 325.825-1525.41 318.678-1524.81 318.593-1475.52 318.593-1426.25 318.593-1425.63 318.678-1424.61 325.825-1423.78 331.728-1425.12 333.076-1431.86 333.076-1436.4 333.076-1443.03 335.972-1446.57 339.512-1452.66 345.605-1453 350.246-1453 427.39-1453 490.002-1452.01 510.199-1448.73 514.689-1445.37 519.273-1439.86 520.573-1422.94 520.735-1397.01 520.982-1388.36 515.79-1374.15 491.436-1365.36 476.373-1356.21 470.46-1352.08 477.18-1350.42 479.866-1356.47 508.32-1362.75 527.369L-1366.61 539.043-1448.52 539.043C-1517.17 539.043-1530.73 538.284-1532.23 534.373ZM-1280.29 536.898C-1285.51 531.678-1281.46 525.727-1269.42 520.905-1260.35 517.28-1254.61 512.174-1250.47 504.04-1245.28 493.856-1194.05 368.099-1179.92 330.827-1176.39 321.516-1172.41 316.723-1167.09 315.385-1162.86 314.322-1158.9 313.933-1158.3 314.531-1157.71 315.129-1146.82 343.08-1134.1 376.65-1121.38 410.211-1106.96 448.232-1102.04 461.149-1086.63 501.638-1079.06 514.423-1066.82 520.526-1060.37 523.743-1055.56 528.555-1055.56 531.792-1055.56 536.917-1059.96 537.439-1103.78 537.439-1147.42 537.439-1152.12 536.889-1153.11 531.716-1153.88 527.758-1151.19 524.958-1144.3 522.557-1132.33 518.371-1131.97 512.962-1141.84 485.94L-1148.9 466.635-1181.55 465.724-1214.19 464.804-1220.96 484.858C-1224.68 495.877-1227.73 507.457-1227.73 510.589-1227.73 517.403-1218.43 522.946-1207.02 522.946-1200.36 522.946-1198.76 524.502-1198.76 531.004L-1198.76 539.043-1238.45 539.043C-1260.28 539.043-1279.11 538.084-1280.29 536.898ZM-1156.93 447.074C-1156.93 446.049-1162.28 430.759-1168.83 413.087L-1180.73 380.968-1186.9 392.984C-1194.09 407.012-1205.2 438.342-1205.2 444.607-1205.2 447.843-1199.12 448.934-1181.06 448.934-1167.79 448.934-1156.93 448.099-1156.93 447.074ZM-1043.08 534.373C-1045.57 527.863-1041.86 522.946-1034.45 522.946-1031.01 522.946-1025.31 520.051-1021.77 516.511-1015.68 510.418-1015.34 505.786-1015.34 428.623-1015.34 340.271-1015.7 338.211-1033.03 333.589-1039.53 331.852-1042.69 328.967-1042.69 324.8-1042.69 318.982-1039.63 318.536-994.655 317.701-896.492 315.869-867.896 327.657-864.745 371.221-862.61 400.644-868.732 410.533-902.177 431.651-904.094 432.866-878.108 475.614-862.904 496.276-850.813 512.696-843.164 519.937-829.411 527.948-828.918 528.242-829.516 531.042-830.721 534.174-832.629 539.147-835.799 539.65-855.169 538.018-890.456 535.066-900.146 527.587-926.445 483.017-946.47 449.115-949.308 445.707-957.764 445.707L-967.055 445.707-967.055 479.315C-967.055 510.408-966.524 513.303-959.909 517.935-955.98 520.697-950.172 522.946-947.04 522.946-943.072 522.946-941.307 525.433-941.307 531.004L-941.307 539.043-991.295 539.043C-1032.02 539.043-1041.61 538.179-1043.08 534.373ZM-931.361 423.024C-912.911 413.153-905.84 374.363-918.662 353.34-928.248 337.613-947.495 329.479-961.978 335.022-966.287 336.692-967.055 344.077-967.055 383.74L-967.055 430.493-952.45 428.491C-944.411 427.39-934.92 424.941-931.361 423.024ZM-784.701 536.898C-785.877 535.721-786.836 532.096-786.836 528.849-786.836 524.54-784.425 522.946-777.915 522.946-772.989 522.946-765.748 520.697-761.818 517.935-754.719 512.971-754.662 512.231-754.662 424.609L-754.662 336.294-772.571 336.294C-796.26 336.294-802.068 339.948-811.237 360.705-817.111 373.974-820.594 378.131-825.843 378.131-832.021 378.131-832.534 376.878-830.75 366.068-829.649 359.424-828.719 346.032-828.671 336.294-828.557 312.424-825.463 307.745-813.904 313.914-801.224 320.672-659.878 320.748-647.275 313.98-641.988 311.161-637.537 310.545-635.725 312.376-634.092 314.018-632.469 329.128-632.099 345.946-631.539 372.218-632.194 376.66-636.806 377.571-640.622 378.33-644.418 373.518-650.017 360.847-659.356 339.749-664.766 336.294-688.474 336.294L-706.393 336.294-706.393 424.609C-706.393 512.221-706.336 512.962-699.236 517.935-695.298 520.687-688.066 522.946-683.15 522.946-675.756 522.946-674.209 524.332-674.209 530.985L-674.209 539.043-728.383 539.043C-758.174 539.043-783.514 538.066-784.701 536.889ZM-611.836 534.373C-614.589 527.217-610.393 522.946-600.618 522.946-595.74 522.946-588.954 520.896-585.518 518.39-579.625 514.081-579.274 509.298-579.274 433.901-579.274 389.956-580.384 350.047-581.732 345.234-583.487 338.942-587.132 335.696-594.601 333.76-601.823 331.89-605.012 329.147-605.012 324.819-605.012 318.849-601.7 318.555-525.784 317.729L-446.555 316.875-444.524 326.983C-443.413 332.545-442.503 345.709-442.503 356.225-442.503 374.145-442.949 375.302-449.64 374.334-454.527 373.632-457.707 370.006-459.776 362.793-461.417 357.013-466.163 348.632-470.31 344.162-477.362 336.55-479.535 336.095-504.42 336.968L-531.004 337.907-531.004 376.527-531.004 415.146-512.193 416.114C-489.861 417.272-479.469 411.881-476.318 397.55-474.647 389.956-472.437 387.793-466.381 387.793-458.599 387.793-458.599 387.793-458.599 424.789-458.599 461.519-458.656 461.804-466.172 461.804-471.962 461.804-474.467 459.337-476.745 451.383-480.636 437.82-491.389 432.591-513.303 433.625L-531.004 434.451-531.004 473.725C-531.004 501.676-529.798 514.195-526.818 517.175-524.047 519.937-513.512 521.332-495.641 521.295-464.844 521.247-458.836 517.755-445.217 492.09-438.241 478.955-429.32 473.82-425.144 480.559-423.312 483.539-431.171 520.63-436.011 531.801L-439.143 539.043-524.607 539.043C-596.328 539.043-610.337 538.284-611.836 534.373ZM-784.53 265.614C-785.735 260.992-783.41 257.67-775.827 253.19-770.142 249.83-762.682 241.449-759.266 234.568-753.618 223.198-752.963 213.194-752.024 125.791-751.464 72.8398-751.825 26.2858-752.821 22.3185-754.093 17.2408-758.183 14.2798-766.687 12.2675-774.014 10.5305-779.177 7.2467-779.822 3.90576-780.781-1.13416-776.169-1.61792-727.31-1.61792-679.097-1.61792-673.839-1.08643-674.779 3.73499-675.349 6.66785-680.881 10.7773-687.079 12.8561-698.192 16.5765-698.373 16.9275-700.356 38.8807-701.467 51.1241-702.549 91.1292-702.767 127.803-703.118 185.718-704.011 196.68-709.543 211.467-718.284 234.825-731.401 249.612-754.074 261.694-776.339 273.577-782.252 274.326-784.53 265.614ZM-1658.15 218.946C-1697.97 209.948-1723.12 190.444-1738.99 156.229-1746.03 141.071-1747.29 133.754-1747.37 107.805-1747.44 81.4103-1746.31 74.8141-1739.06 59.5236-1714.93 8.66089-1658.22-14.4785-1580.99-4.93994L-1546.74-0.716187-1544.73 20.5533C-1543.62 32.2556-1542 45.6191-1541.14 50.2604-1539.9 56.8851-1541.04 59.0778-1546.44 60.4824-1552.15 61.9818-1554.38 59.8939-1559.55 48.2103-1568.18 28.7155-1581.93 15.9879-1599.06 11.6788-1641.36 1.03003-1672.51 17.2693-1687.73 57.9196-1697.62 84.3905-1696.24 136.07-1684.94 161.676-1669.65 196.347-1628.91 217.38-1603.24 203.865-1592.41 198.16-1591.48 195.114-1591.42 164.999-1591.38 134.342-1593.52 130.745-1614.71 125.819-1620.74 124.414-1623.56 121.719-1623.56 117.315-1623.56 111.089-1621.76 110.89-1572.92 111.744-1527.62 112.531-1522.16 113.225-1521.18 118.274-1520.56 121.558-1522.55 124.671-1525.97 125.743-1541.22 130.498-1541.43 131.096-1543.11 172.439L-1544.72 212.264-1567.24 216.08C-1607.32 222.856-1636.73 223.796-1658.15 218.946ZM-1313.53 217.038C-1347.76 212.577-1356.51 205.487-1380.82 162.512-1400.66 127.461-1403.81 123.893-1414.88 123.893L-1424.03 123.893-1423.99 153.656C-1423.93 188.385-1420.24 198.018-1405.53 201.824-1398.18 203.722-1395.07 206.418-1395.07 210.878-1395.07 216.915-1397.47 217.228-1446.57 217.228-1495.66 217.228-1498.05 216.915-1498.05 210.878-1498.05 206.418-1494.94 203.722-1487.59 201.824-1481.51 200.239-1475.46 195.825-1473.16 191.27-1468.3 181.684-1467.44 35.3406-1472.16 22.8976-1474.35 17.1271-1478.49 14.2036-1486.65 12.6758-1494.93 11.1287-1498.05 8.87915-1498.05 4.46582-1498.05-1.30481-1494.64-1.61792-1432.89-1.60852-1360.12-1.5802-1347.08 0.669434-1331.96 15.7985-1306.35 41.405-1312.02 84.0864-1343.42 101.978-1352.14 106.951-1355.87 111.003-1354.69 114.24-1348.81 130.337-1319.67 173.066-1302.41 190.919-1283.81 210.129-1278.99 221.081-1289.58 220.037-1291.85 219.8-1302.63 218.462-1313.53 217.038ZM-1388.63 102.158C-1360.93 88.3291-1358.07 35.8719-1384.09 18.8164-1394.91 11.7264-1416.72 11.1001-1420.93 17.7721-1424.33 23.1442-1425.19 102.357-1421.89 105.651-1417.86 109.684-1399.92 107.805-1388.63 102.158ZM-882.455 179.188C-901.551 156.504-932.376 119.688-950.969 97.3744L-984.756 56.8093-985.629 121.007C-986.151 159.816-985.221 187.606-983.256 191.279-981.472 194.62-973.832 199.404-966.287 201.919-958.751 204.443-952.582 208.534-952.582 211.058-952.582 214.703-961 215.785-995.215 216.507-1036.38 217.37-1037.86 217.171-1037.86 210.802-1037.86 206.047-1035.18 203.646-1028.38 202.289-1008 198.208-1007.39 195.645-1006.28 109.77-1005.31 34.7234-1005.52 31.6389-1012.05 23.3246-1016 18.3135-1023.48 13.8429-1029.95 12.6188-1037.98 11.119-1041.08 8.84119-1041.08 4.46582-1041.08-1.13416-1038.32-1.60852-1006.48-1.42822L-971.886-1.22864-910.747 70.3911-849.598 142.002-848.678 87.0861C-848.174 56.8851-848.554 28.9436-849.522 25.0139-850.804 19.813-855.435 16.6526-866.53 13.4158-875.679 10.7488-882.199 6.85767-882.816 3.68738-883.737-1.03918-879-1.61792-839.946-1.61792-800.74-1.61792-796.146-1.04846-797.067 3.73499-797.636 6.66785-802.942 10.7015-808.855 12.6946-814.767 14.6783-821.287 19.1581-823.338 22.6317-825.871 26.9313-827.428 59.6851-828.159 124.699L-829.25 220.436-838.494 220.436C-846.391 220.436-852.806 214.399-882.455 179.188ZM-1276 211.03C-1276 206.826-1272.42 203.665-1264.79 201.141-1251.44 196.737-1244.4 187.35-1233.44 159.285-1208.05 94.28-1169.35-0.108765-1167.33-1.95972-1166.03-3.15564-1161.73-5.10144-1157.76-6.28748-1149.34-8.83142-1150.82-11.6787-1128.34 49.8713-1119.62 73.7698-1110.94 96.9375-1109.06 101.37-1107.18 105.783-1098.97 126.787-1090.81 148.028-1075.77 187.189-1066.91 201.131-1057 201.131-1050.21 201.131-1043.02 209.312-1045.81 213.859-1047.11 215.947-1066.04 217.228-1095.98 217.228-1142.16 217.228-1144.06 216.953-1144.06 210.679-1144.06 207.091-1141.52 203.238-1138.42 202.137-1125.38 197.486-1125.02 195.209-1133.4 170.285L-1141.5 146.206-1175.67 147.117-1209.85 148.028-1215.88 168.244C-1223.92 195.199-1222.81 197.79-1201.18 202.526-1195.16 203.846-1192.33 206.503-1192.33 210.841-1192.33 216.867-1194.61 217.228-1234.16 217.228-1273.29 217.228-1276 216.82-1276 211.03ZM-1150.49 126.104C-1150.49 123.342-1169.66 68.8538-1172.27 64.1934-1174.64 59.9792-1177.81 65.1234-1187.02 88.1584-1193.49 104.303-1198.76 119.659-1198.76 122.298-1198.76 126.142-1193.88 127.1-1174.63 127.1-1161.35 127.1-1150.49 126.654-1150.49 126.104ZM-677.427 210.708C-677.427 206.019-674.684 203.637-667.718 202.241-655.503 199.802-644.418 186.79-635.971 164.97-591.934 51.3423-568.15-3.04138-561.346-5.54724-557.331-7.02783-552.794-6.99951-551.257-5.46191-549.719-3.93372-540.048 19.6421-529.76 46.9194-469.893 205.668-473.717 197.79-454.565 202.346-448.605 203.779-445.729 206.541-445.729 210.841-445.729 216.915-448.026 217.209-495.603 217.209-542.487 217.209-545.486 216.848-545.486 211.097-545.486 207.186-541.994 203.76-535.825 201.606-524.246 197.572-524.142 195.74-533.908 168.947L-541.538 148.028-575.534 147.117-609.52 146.206-616.097 167.485C-623.462 191.336-621.327 201.122-608.733 201.122-599.28 201.122-588.897 208.733-591.839 213.517-593.386 215.994-607.831 217.209-635.781 217.209-675.453 217.209-677.427 216.906-677.427 210.708ZM-551.921 124.452C-551.921 121.605-564.828 83.4509-571.178 67.5815-575.022 57.9481-575.06 57.9957-587.445 88.4905-594.269 105.309-599.944 120.874-600.03 123.095-600.144 125.961-593.31 127.1-576.056 127.1-562.778 127.1-551.921 125.914-551.921 124.452ZM-1726.54-85.8514C-1726.54-87.0476-1712.87-108.042-1696.15-132.51-1679.44-156.987-1653.45-195.113-1638.4-217.237-1623.35-239.361-1602.56-269.77-1592.19-284.823-1581.83-299.867-1556.08-337.527-1534.97-368.487-1513.87-399.476-1486.21-439.898-1473.49-458.34L-1450.38-491.862-1458.69-504.998C-1483.69-544.519-1516.83-629.246-1530.52-688.717-1534.6-706.418-1538.18-721.3-1538.46-721.784-1539.04-722.762-1647.91-695.247-1766.38-664.193-1806.87-653.572-1841.65-645.523-1843.66-646.302-1848.32-648.095-1862.74-706.646-1859.37-710.034-1857.97-711.429-1845.25-715.387-1831.1-718.842-1800.54-726.302-1644.92-766.379-1588.87-781.231L-1549.36-791.691-1548.15-862.495C-1546.51-957.076-1537.91-1008.15-1509.42-1092.43-1503.17-1110.92-1498.05-1127.07-1498.05-1128.34-1498.05-1129.6-1520.14-1147.4-1547.13-1167.9-1574.12-1188.41-1613.58-1218.48-1634.82-1234.74-1656.06-1250.99-1692.26-1278.64-1715.28-1296.17-1738.28-1313.71-1757.55-1329.24-1758.08-1330.68-1759.95-1335.8-1719.27-1385.55-1715.59-1382.64-1713.64-1381.1-1692.28-1364.81-1668.11-1346.44-1643.94-1328.08-1589.01-1286.25-1546.06-1253.51-1503.1-1220.76-1467.12-1194.27-1466.11-1194.65-1465.09-1195.03-1456.06-1208.38-1446.02-1224.32-1390.51-1312.55-1313.36-1386.44-1228.58-1432.6-1219.31-1437.65-1211.71-1443.22-1211.69-1444.99-1211.66-1446.76-1235.58-1516.16-1264.84-1599.21-1294.09-1682.26-1316.89-1751.22-1315.52-1752.45-1313.05-1754.65-1274.55-1769.25-1261.1-1773.1-1256.28-1774.47-1253.58-1773.35-1252.03-1769.33-1250.82-1766.18-1226.62-1697.7-1198.26-1617.17-1169.89-1536.63-1146.26-1470.3-1145.75-1469.77-1145.23-1469.24-1133.41-1471.71-1119.49-1475.26-1081.91-1484.84-1021.12-1492.08-985.534-1491.21-968.251-1490.79-952.848-1491.8-951.31-1493.46-949.763-1495.12-946.964-1505.17-945.094-1515.79-943.206-1526.41-935.746-1562.62-928.514-1596.25-921.263-1629.88-911.829-1674.05-907.52-1694.41-888.311-1785.25-882.911-1808.78-880.813-1810.67-879.57-1811.78-864.802-1809.6-847.994-1805.84-811.74-1797.73-813.495-1803.9-828.092-1736.24-862.221-1578.08-879.969-1493.79-881.098-1484.45-881.639-1479.99-873.05-1475.88-838.779-1464.16-815.128-1456.08-795.454-1449.91-795.045-1450.45-794.647-1450.99-789.674-1458.31-783.989-1466.72L-773.663-1482-627.392-1482-481.12-1482-481.12-783.651-481.12-85.2917-625.902-85.2917-770.673-85.2917-771.508-197.125-772.363-308.969-919.659-309.804-1066.94-310.63-1066.07-383.815-1065.21-457.001-917.979-457.827-770.759-458.672-770.854-761.953C-770.948-1035.83-771.442-1064.61-775.912-1058.81-778.636-1055.27-831.699-977.791-893.816-886.627-955.942-795.474-1014.23-710.025-1023.38-696.756-1039.43-673.456-1066-634.514-1133.17-535.777-1302.24-287.329-1412.29-126.151-1425.64-107.453L-1441.73-84.9119-1584.13-84.3044C-1662.45-83.9628-1726.53-84.6558-1726.53-85.8514ZM-1407.49-554.37C-1404.58-559.221-1383.3-590.712-1360.2-624.348-1337.1-657.976-1305.88-703.59-1290.84-725.714-1275.79-747.843-1254.52-778.981-1243.57-794.914-1191.08-871.264-1112.89-985.539-1081.73-1031.46-1066.71-1053.58-1040.49-1091.96-1023.47-1116.73-1006.44-1141.51-980.181-1179.9-965.11-1202.02-928.608-1255.63-883.926-1320.97-853.366-1365.39-839.661-1385.33-827.693-1403.59-826.782-1405.97-824.77-1411.21-855.283-1421.33-897.878-1429.54-938.83-1437.43-1019.13-1437.33-1061.99-1429.33-1217.12-1400.4-1351.68-1294.55-1428.94-1140.71-1474.35-1050.3-1495.32-958.731-1495.23-851.231-1495.15-751.249-1477.59-670.532-1436.43-580.898-1425.49-557.085-1418.5-545.496-1415.11-545.516-1413.82-545.525-1410.4-549.521-1407.49-554.37ZM-1289.12-850.988C-1294.56-856.424-1298.53-863.821-1298.53-868.527-1298.53-896.528-1269.39-909.482-1250-890.093-1243.59-883.683-1240.6-877.467-1240.6-870.547-1240.6-863.614-1243.59-857.398-1250-850.988-1256.43-844.565-1262.64-841.573-1269.56-841.573-1276.49-841.573-1282.7-844.565-1289.12-850.988ZM-1300.6-1095.79C-1318.39-1102.96-1323.58-1128.98-1309.94-1142.63-1298.52-1154.04-1281.61-1153.42-1269.32-1141.12-1256.59-1128.39-1257.04-1117.35-1270.85-1103.54-1281.97-1092.43-1288.22-1090.8-1300.6-1095.79ZM-1094.94-1190.84C-1103.46-1196.82-1107.08-1213.37-1102.51-1225.4-1100.62-1230.37-1094.39-1236.5-1088.27-1239.42-1078.25-1244.2-1076.54-1244.19-1066.13-1239.24-1046.67-1230.02-1042.37-1211.84-1055.85-1195.83-1062.38-1188.07-1066.75-1185.93-1076.05-1185.93-1082.57-1185.93-1091.07-1188.14-1094.94-1190.84Z" fill-rule="evenodd"/></g></svg>